<svg id="visual" viewBox="0 0 900 600" width="900" height="600" xmlns="http://www.w3.org/2000/svg" xmlns:xlink="http://www.w3.org/1999/xlink" version="1.1"><rect x="0" y="0" width="900" height="600" fill="#002233"></rect><path d="M0 434L15 442.8C30 451.7 60 469.3 90 471.5C120 473.7 150 460.3 180 444C210 427.7 240 408.3 270 402.7C300 397 330 405 360 407.3C390 409.7 420 406.3 450 416.7C480 427 510 451 540 457.5C570 464 600 453 630 441.7C660 430.3 690 418.7 720 428.5C750 438.3 780 469.7 810 468C840 466.3 870 431.7 885 414.3L900 397L900 601L885 601C870 601 840 601 810 601C780 601 750 601 720 601C690 601 660 601 630 601C600 601 570 601 540 601C510 601 480 601 450 601C420 601 390 601 360 601C330 601 300 601 270 601C240 601 210 601 180 601C150 601 120 601 90 601C60 601 30 601 15 601L0 601Z" fill="#0066FF" stroke-linecap="round" stroke-linejoin="miter"></path></svg>